<?xml version="1.0" encoding="UTF-8"?>
<svg id="Layer_1" xmlns="http://www.w3.org/2000/svg" version="1.1" viewBox="0 0 800 800">
  <!-- Generator: Adobe Illustrator 29.8.7, SVG Export Plug-In . SVG Version: 2.1.1 Build 1)  -->
  <defs>
    <style>
      .st0 {
        fill: #711013;
        fill-rule: evenodd;
      }
    </style>
  </defs>
  <path class="st0" d="M486.67,250.55v31.23c30.13-18.72,64.92-29.63,117.77-29.63,172.02,0,194.04,128.58,194.04,240.59v305.51l-198.9,1.75v-292.19c0-49.05-17.57-58.36-50.05-58.36s-50.05,9.76-50.05,58.36v292.19l-201.5-1.75V250.55h188.69ZM200.2,250.22v549.55H0V250.22h200.2,0ZM150.15,300.27H50.05v449.45h100.1v-449.45h0ZM436.62,300.6h-88.59v448.05l101.4.9v-241.74c0-94.34,62.71-108.41,100.1-108.41,45.65,0,100.1,18.82,100.1,108.41v241.74l98.8-.9v-255.91c0-138.89-38.99-190.54-143.99-190.54-63.11,0-90.44,18.72-117.22,41.24l-6.96,5.91h-43.64v-48.75ZM100.1,0c55.21,0,100.1,44.89,100.1,100.1s-44.89,100.1-100.1,100.1S0,155.31,0,100.1,44.89,0,100.1,0ZM100.1,50.05c-27.58,0-50.05,22.47-50.05,50.05s22.47,50.05,50.05,50.05,50.05-22.47,50.05-50.05-22.47-50.05-50.05-50.05Z"/>
</svg>