<?xml version="1.0" encoding="UTF-8"?>
<svg id="Layer_1" xmlns="http://www.w3.org/2000/svg" version="1.1" viewBox="0 0 800 800">
  <!-- Generator: Adobe Illustrator 29.8.7, SVG Export Plug-In . SVG Version: 2.1.1 Build 1)  -->
  <defs>
    <style>
      .st0 {
        fill: none;
        stroke: #711013;
        stroke-linecap: round;
        stroke-linejoin: round;
        stroke-width: 66.67px;
      }
    </style>
  </defs>
  <path class="st0" d="M133.33,600l166.67-200M666.67,600l-166.67-200M100,266.67l240.83,160.55c21.38,14.26,32.07,21.39,43.63,24.15,10.21,2.45,20.86,2.45,31.07,0,11.56-2.77,22.25-9.9,43.63-24.15l240.83-160.55M206.67,633.33h386.67c37.34,0,56.01,0,70.27-7.27,12.54-6.39,22.74-16.59,29.13-29.13,7.27-14.26,7.27-32.93,7.27-70.27v-253.33c0-37.34,0-56.01-7.27-70.27-6.39-12.54-16.59-22.74-29.13-29.13-14.26-7.27-32.93-7.27-70.27-7.27H206.67c-37.34,0-56.01,0-70.27,7.27-12.54,6.39-22.74,16.59-29.13,29.13-7.27,14.26-7.27,32.93-7.27,70.27v253.33c0,37.34,0,56.01,7.27,70.27,6.39,12.54,16.59,22.74,29.13,29.13,14.26,7.27,32.93,7.27,70.27,7.27Z"/>
</svg>