<?xml version="1.0" encoding="UTF-8"?>
<svg id="Layer_1" xmlns="http://www.w3.org/2000/svg" version="1.1" viewBox="0 0 800 800">
  <!-- Generator: Adobe Illustrator 29.8.7, SVG Export Plug-In . SVG Version: 2.1.1 Build 1)  -->
  <defs>
    <style>
      .st0 {
        fill: #711013;
      }

      .st1 {
        fill: none;
        stroke: #711013;
        stroke-linecap: round;
        stroke-miterlimit: 133.33;
        stroke-width: 50px;
      }
    </style>
  </defs>
  <path class="st1" d="M450,66.67s77.78,7.07,176.78,106.07c98.99,98.99,106.07,176.78,106.07,176.78"/>
  <path class="st1" d="M473.57,184.52s33,9.43,82.5,58.93c49.5,49.5,58.93,82.5,58.93,82.5"/>
  <path class="st0" d="M503.36,500.91l-18.13-17.22,18.13,17.22ZM518.54,484.92l18.13,17.22h0l-18.13-17.22ZM599.09,473.74l-12.47,21.67h0l12.47-21.67ZM662.78,510.4l-12.47,21.67,12.47-21.67ZM680.72,625.28l18.13,17.22-18.13-17.22ZM633.37,675.13l-18.13-17.22,18.13,17.22ZM589.21,698.77l2.45,24.88-2.45-24.88ZM260.51,549.17l18.13-17.22-18.13,17.22ZM100.1,232.2l-24.96,1.34h0l24.96-1.34ZM315.92,283.44l18.13,17.22h0l-18.13-17.22ZM321.14,189.77l20.41-14.43-20.41,14.43ZM279.11,130.32l-20.41,14.43h0l20.41-14.43ZM175.38,120.29l18.13,17.22-18.13-17.22ZM123.06,175.37l-18.13-17.22h0l18.13,17.22ZM368.77,435.2l18.13-17.22-18.13,17.22ZM521.48,518.12l15.18-15.98-36.25-34.43-15.18,15.98,36.25,34.43ZM586.62,495.41l63.68,36.66,24.94-43.33-63.68-36.66-24.94,43.33ZM662.6,608.06l-47.35,49.85,36.25,34.43,47.35-49.85-36.25-34.43ZM586.75,673.89c-47.83,4.72-172.64.69-308.11-141.93l-36.25,34.43c147.64,155.44,288.48,163.26,349.28,157.26l-4.91-49.76ZM278.64,531.96C149.43,395.93,127.76,281.19,125.06,230.86l-49.93,2.68c3.31,61.64,29.48,187.81,167.25,332.85l36.25-34.43ZM324.48,310.72l9.56-10.07-36.25-34.43-9.56,10.07,36.25,34.43ZM341.55,175.34l-42.03-59.45-40.83,28.87,42.03,59.45,40.83-28.87ZM157.26,103.07l-52.32,55.08,36.25,34.43,52.32-55.08-36.25-34.43ZM306.36,293.5q-18.13-17.22-18.17-17.17s-.03.03-.05.05c-.03.03-.06.07-.1.1-.07.07-.13.14-.2.22-.14.15-.29.32-.44.5-.31.36-.65.77-1.02,1.23-.73.93-1.56,2.06-2.43,3.42-1.74,2.73-3.63,6.31-5.24,10.81-3.26,9.15-5.03,21.27-2.81,36.41,4.36,29.74,23.84,69.73,74.75,123.33l36.25-34.43c-47.59-50.1-59.31-80.96-61.53-96.14-1.07-7.33.02-11.18.45-12.4.24-.68.4-.87.25-.63-.07.12-.23.34-.48.66-.13.16-.28.34-.46.55-.09.1-.19.21-.29.33-.05.06-.11.12-.16.18-.03.03-.06.06-.09.09-.01.02-.04.04-.04.05t-18.17-17.17ZM350.64,452.41c50.76,53.44,89.1,74.45,118.35,79.2,15.01,2.44,27.16.49,36.36-3.14,4.5-1.77,8.05-3.86,10.72-5.75,1.33-.95,2.44-1.84,3.34-2.63.45-.39.84-.76,1.19-1.09.17-.16.33-.32.48-.47.07-.07.14-.15.21-.22.03-.03.07-.07.1-.1.02-.02.04-.04.05-.05t-18.08-17.27q-18.13-17.22-18.08-17.26s.03-.03.04-.05l.09-.09c.06-.06.12-.12.17-.18.11-.11.22-.22.32-.31.2-.19.38-.36.54-.5.32-.28.55-.46.71-.57.31-.22.28-.15-.14.02-.64.25-3.67,1.32-10,.3-13.42-2.18-42.37-14.02-90.11-64.28l-36.25,34.43ZM299.52,115.89c-33.79-47.79-101.39-55.85-142.27-12.82l36.25,34.43c17.43-18.35,48.11-16.91,65.19,7.25l40.83-28.87ZM125.06,230.86c-.71-13.31,5.08-26.64,16.13-38.27l-36.25-34.43c-17.86,18.81-31.44,44.93-29.8,75.38l49.93-2.68ZM615.24,657.92c-9.3,9.79-19.03,15.04-28.49,15.97l4.91,49.76c24.9-2.46,45.06-15.74,59.83-31.3l-36.25-34.43ZM334.04,300.65c32.25-33.96,34.54-87.1,7.51-125.32l-40.83,28.87c14.07,19.9,11.91,46.38-2.94,62.02l36.25,34.43ZM650.31,532.07c27.36,15.75,32.72,54.49,12.29,76l36.25,34.43c43.5-45.8,30.83-122.43-23.6-153.76l-24.94,43.33ZM536.67,502.14c12.85-13.53,32.87-16.57,49.96-6.73l24.94-43.33c-36.62-21.08-82.03-15.03-111.15,15.63l36.25,34.43Z"/>
</svg>